<svg width="54" height="9" viewBox="0 0 54 9" fill="none" xmlns="http://www.w3.org/2000/svg">
<g id="Group 18">
<path id="Ellipse 21" d="M20.662 4.5C20.662 6.65147 18.6603 8.5 16.0539 8.5C13.4475 8.5 11.4458 6.65147 11.4458 4.5C11.4458 2.34853 13.4475 0.5 16.0539 0.5C18.6603 0.5 20.662 2.34853 20.662 4.5Z" fill="#D0EFFF" stroke="#D0EFFF"/>
<path id="Ellipse 22" d="M9.71622 4.5C9.71622 6.65147 7.71453 8.5 5.10811 8.5C2.50169 8.5 0.5 6.65147 0.5 4.5C0.5 2.34853 2.50169 0.5 5.10811 0.5C7.71453 0.5 9.71622 2.34853 9.71622 4.5Z" stroke="#D0EFFF"/>
<path id="Ellipse 23" d="M31.6083 4.5C31.6083 6.65147 29.6066 8.5 27.0002 8.5C24.3938 8.5 22.3921 6.65147 22.3921 4.5C22.3921 2.34853 24.3938 0.5 27.0002 0.5C29.6066 0.5 31.6083 2.34853 31.6083 4.5Z" fill="#D0EFFF" stroke="#D0EFFF"/>
<path id="Ellipse 24" d="M42.5541 4.5C42.5541 6.65147 40.5524 8.5 37.946 8.5C35.3396 8.5 33.3379 6.65147 33.3379 4.5C33.3379 2.34853 35.3396 0.5 37.946 0.5C40.5524 0.5 42.5541 2.34853 42.5541 4.5Z" fill="#D0EFFF" stroke="#D0EFFF"/>
<path id="Ellipse 25" d="M53.4999 4.5C53.4999 6.65147 51.4982 8.5 48.8918 8.5C46.2854 8.5 44.2837 6.65147 44.2837 4.5C44.2837 2.34853 46.2854 0.5 48.8918 0.5C51.4982 0.5 53.4999 2.34853 53.4999 4.5Z" fill="#D0EFFF" stroke="#D0EFFF"/>
</g>
</svg>
